<?xml version="1.0" encoding="utf-8"?>
<!-- Generator: Adobe Illustrator 19.2.1, SVG Export Plug-In . SVG Version: 6.00 Build 0)  -->
<svg version="1.1" id="layer" xmlns="http://www.w3.org/2000/svg" xmlns:xlink="http://www.w3.org/1999/xlink" x="0px" y="0px"
	 viewBox="0 0 652 652" style="enable-background:new 0 0 652 652;" xml:space="preserve">
<rect x="88.4" y="478.6" width="474.8" height="7"/>
<polygon points="88.4,506.8 158.8,506.8 158.8,519 104.6,519 104.6,537.3 151.7,537.3 151.7,550 104.6,550 104.6,576.4 88.4,576.4 
	"/>
<path d="M230.5,548.7l15.5-28.3l15,28.3H230.5z M199.3,576.4h16.2l8.1-15.2h44.1l8.4,15.2h18.2l-39.9-69.6h-15.6L199.3,576.4z"/>
<g>
	<path d="M399.9,518.8c5,0,7.3,0.9,7.3,5.5v8.4c0,4.6-2.3,5.5-7.3,5.5h-36.4v-19.4H399.9z M347.6,576.4h15.9v-26.3h15.4l28.1,26.3
		h23.2l-29.8-26.3h6.8c10.7,0,15.6-3.8,15.6-13.5v-16.3c0-9.7-5-13.5-15.6-13.5h-59.6V576.4z"/>
	<polygon points="491.4,506.8 563.2,506.8 563.2,518.7 507.6,518.7 507.6,534.2 556.1,534.2 556.1,546.1 507.6,546.1 507.6,563.4 
		563.2,563.4 563.2,576.4 491.4,576.4 	"/>
	<path d="M97.1,450.2h24.8v-30.4h8.7v28.6c0,7-2.3,8.9-9.3,8.9H97.7c-7,0-9.3-1.8-9.3-8.9v-28.6h8.7V450.2z"/>
	<path d="M225.1,426.2c2.7,0,3.9,0.5,3.9,3v4.5c0,2.5-1.2,3-3.9,3h-19.6v-10.5H225.1z M196.9,457.2h8.6v-14.2h8.3l15.1,14.2h12.5
		l-16.1-14.2h3.8c5.7,0,8.4-2,8.4-7.3V427c0-5.2-2.7-7.3-8.4-7.3h-32.1V457.2z"/>
	<path d="M333.5,441c3,0,4.2,0.6,4.2,3.3v2.8c0,2.8-1.2,3.3-4.2,3.3h-19.9V441H333.5z M305.1,457.2h29.8c7.3,0,11-2.3,11-7.3v-4.8
		c0-4-2.4-6.6-6.8-7.2c4.1-0.5,6.5-2.7,6.5-6.3V427c0-5.2-2.7-7.3-8.4-7.3h-32.1V457.2z M333.5,425.9c2.7,0,4,0.5,4,2.7v3.6
		c0,2.2-1.3,2.7-4,2.7h-19.9v-8.9H333.5z"/>
	<path d="M424.5,442.3l8.4-15.2l8.1,15.2H424.5z M407.8,457.2h8.7l4.4-8.2h23.7l4.5,8.2h9.8l-21.5-37.5H429L407.8,457.2z"/>
	<path d="M519.1,419.8h6l26.4,22.1c1.5,1.2,3,2.5,4.3,4.1c-0.2-3.1-0.4-5.3-0.4-6.5v-19.7h7.8v37.5h-6l-27.5-23.2
		c-1.1-0.9-2.1-1.9-3.1-3c0.3,2.9,0.4,4.9,0.4,6v20.3h-7.8V419.8z"/>
	<path d="M232.2,302.8l35-8.7c1.1-0.3,2.1-1.4,2.1-2.6l0.3-16.4c0,0,0,0,0,0c0.6-29.4,1.1-57.7,1.1-57.7c0-0.9-0.2-1.6-0.4-2.2
		c-0.2-0.5-0.5-1-0.9-1.4c-0.3-0.4-0.7-0.7-1-0.9l-0.2-0.1c-0.2-0.2-0.4-0.3-0.6-0.5c0,0,0,0,0,0c-2.1-1.6-4.2-3.3-5.8-5.2
		c-1.6-1.8-2.7-3.6-3.5-5.7c-0.9-2.2-1.4-4.9-1.8-8.4c-0.3-3.3-0.5-7.5-0.5-13.3c0,0,0,0,0,0l0.1-4l0.3-6.7l0.4-8l0.5-7.9
		c0.2-2.6,0.4-5.7,0.8-9.1l0.9-8.7l0.7-6.6l0.3-2.6c0,0,0,0,0-0.1c0-0.3,0.1-0.6,0.2-1c0.1-0.3,0.2-0.6,0.4-0.9
		c0.2-0.3,0.4-0.5,0.6-0.7c0.2-0.2,0.5-0.4,0.7-0.5c0.2-0.1,0.4-0.1,0.6-0.1c0.2,0,0.3,0.1,0.5,0.2c0.1,0.1,0.3,0.3,0.3,0.5
		c0.1,0.2,0.1,0.5,0.1,0.8v55.2c0,0,0,0,0,0.1c0,0.3,0.1,0.6,0.2,0.9c0.1,0.3,0.3,0.6,0.5,0.7c0.2,0.2,0.5,0.3,0.8,0.4
		c0.3,0.1,0.6,0,0.9-0.1c0.3-0.1,0.6-0.2,0.8-0.5c0.2-0.2,0.5-0.4,0.7-0.7c0.2-0.3,0.3-0.6,0.5-0.9c0.1-0.3,0.2-0.7,0.2-1
		c0,0,1.7-56.3,1.7-56.3c0-0.3,0.1-0.7,0.2-1c0.1-0.3,0.2-0.6,0.4-0.9c0.2-0.3,0.4-0.6,0.6-0.8c0.2-0.2,0.5-0.4,0.7-0.5
		c0.2-0.1,0.5-0.1,0.7-0.1c0.2,0,0.4,0.1,0.5,0.2c0.2,0.1,0.3,0.3,0.4,0.5c0.1,0.2,0.1,0.5,0.1,0.8c0,0,0.5,55.6,0.5,55.6
		c0,0,0,0,0,0c0,0.4,0.1,0.7,0.2,1c0.1,0.3,0.3,0.6,0.5,0.8c0.2,0.2,0.5,0.3,0.8,0.4c0.3,0.1,0.6,0,1-0.1c0.3-0.1,0.6-0.3,0.9-0.5
		c0.3-0.2,0.5-0.5,0.7-0.8c0.2-0.3,0.4-0.6,0.5-1c0.1-0.3,0.2-0.7,0.2-1.1c0,0,0,0,0,0l0.5-56.2c0-0.3,0.1-0.7,0.2-1
		c0.1-0.3,0.3-0.7,0.4-1c0.2-0.3,0.4-0.6,0.7-0.8c0.2-0.2,0.5-0.4,0.8-0.5c0.2-0.1,0.5-0.1,0.7-0.1c0.2,0,0.4,0.1,0.5,0.2
		c0.2,0.1,0.3,0.3,0.4,0.5c0.1,0.2,0.2,0.5,0.2,0.8c0,0,1.7,56,1.7,56c0,0.4,0.1,0.7,0.2,0.9c0.1,0.3,0.3,0.5,0.6,0.7
		c0.2,0.2,0.5,0.3,0.8,0.3c0.3,0,0.6,0,0.9-0.1c0.3-0.1,0.6-0.3,0.9-0.5c0.3-0.2,0.5-0.5,0.7-0.8c0.2-0.3,0.4-0.6,0.5-1
		c0.1-0.3,0.2-0.7,0.2-1c0,0,0,0,0-0.1v-56.7c0-0.3,0.1-0.7,0.2-1c0.1-0.3,0.3-0.7,0.5-1c0.2-0.3,0.4-0.6,0.7-0.8
		c0.2-0.2,0.5-0.4,0.8-0.5c0.3-0.1,0.5-0.1,0.7-0.1c0.2,0,0.4,0.1,0.5,0.2c0.2,0.1,0.3,0.3,0.4,0.5c0.1,0.2,0.2,0.5,0.2,0.8
		c0,0,0,0,0,0.1l0.3,2.4l0.8,6.2c0.4,2.9,0.7,5.7,1,8.4c0.3,3.3,0.6,6.3,0.8,8.9c0.2,2.2,0.3,4.9,0.5,7.9l0.4,8.1l0.3,6.8l0.2,4.1
		c0,0,0,0,0,0c0,6-0.1,10.4-0.5,14.2c-0.4,3.9-1,7.1-1.9,10c-0.9,2.8-2.1,5.4-3.8,8.3c-1.8,2.9-4,6-6.2,8.9
		c-0.2,0.3-0.4,0.6-0.7,0.9l-0.2,0.3c-0.3,0.4-0.7,0.9-1,1.5c-0.4,0.6-0.7,1.3-0.9,1.9c-0.2,0.8-0.4,1.6-0.4,2.5
		c0,0,0.6,30.5,1.2,61.2h0c0.1,7.5,0.2,12.6,0.2,12.6c0,1.2,1,1.9,2.1,1.6l41.1-10.2c1.1-0.3,2.1-1.4,2.1-2.6l0.3-16.4h0l1.1-63.4
		c0-0.6-0.2-1.2-0.3-1.8c-0.2-0.6-0.4-1.1-0.6-1.5c-0.3-0.5-0.6-0.8-0.9-1.1c-0.4-0.3-0.8-0.5-1.2-0.6c-2.4-0.5-4.7-1.5-6.8-3
		c-2.1-1.6-3.9-3.7-5.4-6.4c-1.5-2.7-2.7-6.1-3.6-10.2c-0.8-4.1-1.3-8.8-1.3-14.4c0-7.6,0.8-15.1,2.2-22.3c1.4-7.2,3.4-14,5.8-20
		c2.4-6.1,5.3-11.4,8.4-15.6c3.1-4.2,6.5-7.3,9.9-8.7v0c0,0,0,0,0,0c0,0,0,0,0,0c0,0,0,0,0,0c0,0,0,0,0,0c0,0,0,0,0,0l0,0
		c0,0,0,0,0,0c3.4-1.5,6.9-1.3,10.1,0.2c3.3,1.6,6.3,4.6,9,8.7c2.7,4.2,4.9,9.6,6.5,16c1.6,6.4,2.5,13.7,2.5,21.7
		c0,5.9-0.5,11.3-1.3,16.2c-0.9,4.9-2.2,9.4-3.8,13.3c-1.6,4-3.6,7.5-5.9,10.6c-2.2,3.1-4.8,5.7-7.5,7.9c-0.5,0.4-0.9,0.9-1.3,1.4
		c-0.4,0.6-0.7,1.2-0.9,1.8c-0.3,0.6-0.5,1.3-0.6,2c-0.2,0.7-0.3,1.4-0.3,2l1.3,72h0l0.1,7.8c0,1.1,1,1.9,2.1,1.6l48.2-12
		c1.1-0.3,2.1-1.5,2.1-2.6l0.3-18.6h0l0.1-4.4l0,0c0,0,0,0,0,0c0-0.1,0-0.2,0-0.3l0.1,0.3c0,0,0,0,0,0c0-0.1,0-0.3,0-0.5
		c0-0.2-0.1-0.5-0.1-0.7c-0.1-0.2-0.2-0.4-0.3-0.5l0.1,0.2c0-0.1-0.1-0.2-0.1-0.2c-0.3-0.5-0.7-1.2-1.4-1.8
		c-1.3-1.3-4.6-2.9-8.6-5.5c-3.7-2.4-3.3-6-3.3-6l0,0.1c-0.1-2.7-0.5-18.9-0.6-31.6c-0.1-15.4,0.4-23.2,1.8-44.2
		c1.3-21.1,3.2-40.4,7.7-57.7c1.2-4.8,2.7-8.7,4.5-11.9H88.4v310.2h37.3V279.1c0-1.2,0.9-2.4,2-2.8l83.1-28.9c1.1-0.4,2,0.3,2,1.4
		v137.8h17.4v-81.2C230.2,304.3,231.1,303.1,232.2,302.8"/>
	<path d="M541,273.1l-5.6,1.1c-1.1,0.2-2.1,1.3-2.1,2.5v110h9.7V274.8C543.1,273.6,542.2,272.9,541,273.1"/>
	<polygon points="397.1,237 397.1,236.9 397.1,237 	"/>
	<path d="M561.6,269.1l-5.9,1.1c-1.1,0.2-2.1,1.3-2.1,2.5v113.9h9.6v-117C562.8,269.2,562.2,269,561.6,269.1"/>
	<path d="M414.5,76.4l0.1,134.5v0.2c0,0.1,0,0.1,0,0.2c0,0.1,0,0.1,0,0.2c0,0.1,0,0.1,0,0.2l0.5,34.9h0l0.1,8.8
		c0,1.2,0.9,1.9,2.1,1.6l28-7c1.1-0.3,2,0.4,2,1.6v135.1h78.4v-66.8c0-3.9,0-4.4-1.3-5.4c-0.6-0.5-1.1-1.4-1.1-3v-32.7
		c0-1.2-0.9-1.9-2.1-1.7l-5.2,1c-1.1,0.2-2.1,1.3-2.1,2.5v22.9c0,1.2-0.7,1.5-1.6,0.7l-6-5.1c-0.9-0.7-1.6-2.3-1.6-3.4V269
		c0-1.2,0.9-2.3,2-2.6l56.4-14.5V76.4H414.5z"/>
	<path d="M268.4,325.7c0-2-0.3-3.8-0.9-5.4c-0.6-1.6-1.4-3-2.4-4.1c-1-1.1-2.2-1.9-3.5-2.3c-1.3-0.4-2.7-0.5-4.2-0.2
		c-1.5,0.3-2.9,1-4.2,2c-1.3,1-2.4,2.2-3.4,3.7c-1,1.5-1.7,3.1-2.3,4.9c-0.5,1.8-0.8,3.7-0.8,5.6c0,0,0,0.9,0,2.1v8
		c0,1.2,0.9,1.9,2.1,1.7l17.4-3.1c1.1-0.2,2.1-1.3,2.1-2.5v-8.4V325.7z"/>
	<path d="M266.2,361.6l-17.3,1.8c-1.1,0.1-2.1,1.2-2.1,2.3v20.9h21.5v-23.2C268.2,362.3,267.3,361.4,266.2,361.6"/>
	<path d="M301.8,319.2c0-2.1-0.3-3.9-0.9-5.6c-0.6-1.7-1.5-3.1-2.5-4.2c-1.1-1.1-2.3-1.9-3.7-2.4c-1.4-0.5-2.9-0.5-4.5-0.2
		c-1.6,0.3-3.1,1.1-4.5,2.1c-1.4,1-2.6,2.3-3.6,3.9c-1,1.5-1.9,3.3-2.4,5.1c-0.6,1.8-0.9,3.8-0.9,5.8c0,0,0,0.9,0,2.1v8.9
		c0,1.2,0.9,1.9,2.1,1.8l19-3.1c1.1-0.2,2.1-1.3,2.1-2.4v-9.6V319.2z"/>
	<path d="M299.6,357.3l-19,2.4c-1.1,0.1-2.1,1.2-2.1,2.4v24.6h23.2v-27.5C301.7,358,300.8,357.1,299.6,357.3"/>
	<path d="M337.9,312.1c0-2.1-0.4-4.1-1-5.8c-0.7-1.7-1.6-3.2-2.7-4.3c-1.1-1.2-2.5-2-4-2.5c-1.5-0.5-3.2-0.5-4.9-0.2
		c-1.7,0.4-3.4,1.1-4.8,2.2c-1.5,1.1-2.8,2.5-3.9,4.1c-1.1,1.6-2,3.4-2.6,5.3c-0.6,1.9-1,4-1,6.1c0,0,0,0.9,0,2.1v9.8
		c0,1.2,0.9,1.9,2.1,1.7l20.9-3.7c1.1-0.2,2.1-1.3,2.1-2.5v-10.2V312.1z"/>
	<path d="M335.7,352.9l-20.9,2.6c-1.1,0.1-2.1,1.2-2.1,2.4v28.7h25v-31.8C337.8,353.6,336.9,352.8,335.7,352.9"/>
	<path d="M377.1,304.5c0-2.2-0.4-4.3-1.1-6.1c-0.7-1.8-1.7-3.3-3-4.5c-1.3-1.2-2.7-2.1-4.4-2.5c-1.6-0.5-3.4-0.5-5.3-0.1
		c-1.9,0.4-3.6,1.2-5.2,2.4c-1.6,1.1-3,2.6-4.2,4.3c-1.2,1.7-2.2,3.6-2.8,5.6c-0.7,2-1,4.2-1,6.3v2.1v10.8c0,1.2,0.9,1.9,2.1,1.8
		l23-3.8c1.1-0.2,2.1-1.3,2.1-2.4v-11.6V304.5z"/>
	<path d="M374.9,347.9l-23,3.2c-1.1,0.2-2.1,1.2-2.1,2.4v33.2h27.1v-36.9C376.9,348.5,376,347.7,374.9,347.9"/>
	<path d="M419.6,296.2c0-2.3-0.4-4.5-1.2-6.3c-0.8-1.9-1.9-3.4-3.2-4.7c-1.4-1.2-3-2.1-4.8-2.6c-1.8-0.5-3.7-0.5-5.8-0.1
		c-2,0.4-4,1.3-5.7,2.5c-1.7,1.2-3.3,2.7-4.6,4.5c-1.3,1.8-2.4,3.7-3.1,5.8c-0.7,2.1-1.1,4.3-1.1,6.6v2.1v12.2
		c0,1.2,0.9,1.9,2.1,1.7l25.4-4.5c1.1-0.2,2.1-1.3,2.1-2.5v-12.7V296.2z"/>
	<path d="M417.4,342.6l-25.3,3.5c-1.1,0.2-2.1,1.2-2.1,2.4v38h29.5v-42.2C419.4,343.3,418.5,342.5,417.4,342.6"/>
	<path d="M150.6,311.1v-20.6c0-1.2-0.9-1.8-2-1.5l-12.1,3.4c-1.1,0.3-2,1.5-2,2.7v20.1c0,1.2,0.9,1.9,2,1.6l12.1-3
		C149.7,313.4,150.6,312.2,150.6,311.1"/>
	<path d="M174.6,305.1v-21.4c0-1.2-0.9-1.8-2-1.5l-13.2,3.7c-1.1,0.3-2,1.5-2,2.7v20.9c0,1.2,0.9,1.9,2,1.6l13.1-3.3
		C173.7,307.4,174.6,306.2,174.6,305.1"/>
	<path d="M200.2,298.7v-22.3c0-1.1-0.9-1.8-2-1.5l-14.3,4c-1.1,0.3-2,1.5-2,2.7v21.7c0,1.2,0.9,1.9,2,1.6l14.3-3.6
		C199.3,301,200.2,299.8,200.2,298.7"/>
	<path d="M150.6,353.6V333c0-1.1-0.9-1.9-2.1-1.7l-12.1,2.5c-1.1,0.2-2.1,1.4-2.1,2.5v20.1c0,1.1,0.9,1.9,2.1,1.7l12-2.1
		C149.6,355.9,150.6,354.8,150.6,353.6"/>
	<path d="M174.6,349.5v-21.4c0-1.1-0.9-1.9-2.1-1.7l-13.1,2.7c-1.1,0.2-2.1,1.4-2.1,2.5v20.9c0,1.2,0.9,1.9,2.1,1.7l13.1-2.2
		C173.7,351.7,174.6,350.6,174.6,349.5"/>
	<path d="M200.2,345.1v-22.3c0-1.1-0.9-1.9-2.1-1.7L184,324c-1.1,0.2-2.1,1.4-2.1,2.5v21.7c0,1.1,0.9,1.9,2.1,1.7l14.2-2.4
		C199.3,347.3,200.2,346.2,200.2,345.1"/>
	<path d="M172.5,370l-13,1.9c-1.1,0.2-2.1,1.2-2.1,2.4v12.3h17.2v-14.8C174.6,370.7,173.7,369.9,172.5,370"/>
	<path d="M198.2,366.3l-14.2,2.1c-1.1,0.2-2.1,1.2-2.1,2.4v15.9h18.3v-18.5C200.2,367,199.3,366.2,198.2,366.3"/>
	<path d="M148.5,373.5l-12,1.7c-1.1,0.2-2.1,1.2-2.1,2.4v9h16.2v-11.3C150.6,374.1,149.6,373.3,148.5,373.5"/>
</g>
</svg>
